<svg width="2365" height="2268" xmlns="http://www.w3.org/2000/svg" xmlns:xlink="http://www.w3.org/1999/xlink" xml:space="preserve" overflow="hidden"><defs><clipPath id="clip0"><rect x="114" y="165" width="2365" height="2268"/></clipPath><clipPath id="clip1"><rect x="114" y="165" width="2365" height="2268"/></clipPath></defs><g clip-path="url(#clip0)" transform="translate(-114 -165)"><g clip-path="url(#clip1)"><path d="M1146 1671.34C1146 1588.31 1213.31 1521 1296.34 1521L2252.66 1521C2335.69 1521 2403 1588.31 2403 1671.34L2403 2272.66C2403 2355.69 2335.69 2423 2252.66 2423L1296.34 2423C1213.31 2423 1146 2355.69 1146 2272.66Z" fill="#FFFDD1" fill-rule="evenodd" fill-opacity="1"/><path d="M1039 315.337C1039 232.308 1106.31 165 1189.34 165L2145.66 165C2228.69 165 2296 232.308 2296 315.337L2296 916.663C2296 999.692 2228.69 1067 2145.66 1067L1189.34 1067C1106.31 1067 1039 999.692 1039 916.663Z" fill="#FFFDD1" fill-rule="evenodd" fill-opacity="1"/><path d="M119 325.336C119 242.308 186.308 175 269.336 175L1050.66 175C1133.69 175 1201 242.308 1201 325.336L1201 926.664C1201 1009.69 1133.69 1077 1050.66 1077L269.336 1077C186.308 1077 119 1009.69 119 926.664Z" fill="#9ACC43" fill-rule="evenodd" fill-opacity="1"/><path d="M1039 407.337C1039 324.308 1106.31 257 1189.34 257L2047.66 257C2130.69 257 2198 324.308 2198 407.337L2198 1008.66C2198 1091.69 2130.69 1159 2047.66 1159L1189.34 1159C1106.31 1159 1039 1091.69 1039 1008.66Z" fill="#9ACC43" fill-rule="evenodd" fill-opacity="1"/><path d="M193 1137.67C193 1002.54 302.543 893 437.672 893L1416.33 893C1551.46 893 1661 1002.54 1661 1137.67L1661 2188.33C1661 2323.46 1551.46 2433 1416.33 2433L437.672 2433C302.543 2433 193 2323.46 193 2188.33Z" fill="#9ACC43" fill-rule="evenodd" fill-opacity="1"/><path d="M1011 952.671C1011 817.543 1120.54 708 1255.67 708L2234.33 708C2369.46 708 2479 817.543 2479 952.671L2479 2004.33C2479 2139.46 2369.46 2249 2234.33 2249L1255.67 2249C1120.54 2249 1011 2139.46 1011 2004.33Z" fill="#9ACC43" fill-rule="evenodd" fill-opacity="1"/></g></g></svg>