<svg width="500" height="500" xmlns="http://www.w3.org/2000/svg" xmlns:xlink="http://www.w3.org/1999/xlink" xml:space="preserve" overflow="hidden"><defs><clipPath id="clip0"><rect x="0" y="0" width="500" height="500"/></clipPath></defs><g clip-path="url(#clip0)"><rect x="0" y="0" width="500" height="500" fill="#E8F4F8" fill-rule="evenodd" fill-opacity="1"/><path d="M50 350C50 320 70 300 100 300L200 300C230 300 250 320 250 350L250 450C250 480 230 500 200 500L100 500C70 500 50 480 50 450Z" fill="#FFFDD1" fill-rule="evenodd" fill-opacity="1"/><path d="M300 100C300 70 320 50 350 50L450 50C480 50 500 70 500 100L500 200C500 230 480 250 450 250L350 250C320 250 300 230 300 200Z" fill="#FFFDD1" fill-rule="evenodd" fill-opacity="1"/><path d="M100 100C100 80 115 70 135 70L250 70C270 70 285 80 285 100L285 200C285 220 270 230 250 230L135 230C115 230 100 220 100 200Z" fill="#9ACC43" fill-rule="evenodd" fill-opacity="1"/><path d="M300 200C300 175 320 160 345 160L420 160C445 160 465 175 465 200L465 280C465 305 445 320 420 320L345 320C320 320 300 305 300 280Z" fill="#9ACC43" fill-rule="evenodd" fill-opacity="1"/></g></svg>